<svg xmlns="http://www.w3.org/2000/svg" width="506" height="159" viewBox="0 0 505.9 159.4"><style>.a{fill:#FFF;}</style><rect width="505.9" height="159.4" fill="#F47E42"/><path d="M81.1 59.9h21.7v2.7c0 8-2.5 14.7-7.6 20 -5.1 5.3-11.6 8-19.6 8 -8 0-14.9-3-20.6-8.9 -5.7-5.9-8.6-12.9-8.6-21 0-8.3 2.9-15.4 8.7-21.3 5.8-5.9 12.9-8.9 21.1-8.9 4.5 0 8.9 1 13 2.9 4.2 2 7.6 4.7 10.4 8.2l-4.9 4.9c-2.1-2.9-4.9-5.3-8.1-7 -3.3-1.7-6.6-2.6-10.1-2.6 -6.4 0-11.9 2.3-16.3 6.8 -4.5 4.6-6.7 10.1-6.7 16.5 0 6.2 2.2 11.6 6.6 16.4 4.4 4.8 9.6 6.8 15.7 6.8 4.6 0 8.5-1.5 12.4-4.9 3.9-3.4 5.4-7.3 5.5-11.5H74.5L81.1 59.9z" class="a"/><path d="M142.6 75.9h-26.1l-6.9 14.8h-8.6l28.8-63.4 28.8 63.4h-9.1L142.6 75.9zM139.3 67.9l-9.5-21.5 -10 21.5H139.3z" class="a"/><path d="M171.5 30.4v52.1h17.6v8.2h-25.8v-60.3H171.5z" class="a"/><path d="M203.3 30.4v60.3h-9v-60.3H203.3z" class="a"/><path d="M245.4 93l-17.5-39.4 0 0 -6.6 37.2h-9l12.5-64.1 20.5 46.7 21.7-46.7 11.3 64.1h-8.9l-6.1-37.1 0 0L245.4 93z" class="a"/><path d="M287.8 90.8v-60.3h7.4c3.1 0 5.9 0.2 8.3 0.7 2.5 0.5 4.8 1.3 6.9 2.4 2.2 1.1 3.8 2.9 5 5.1 1.2 2.3 1.8 5 1.8 8.3 0 2.3-0.6 4.5-1.8 6.8 -1.2 2.2-2.7 3.8-4.7 4.7v0.2c3.5 0.6 6.3 2.4 8.6 5.4 2.3 3 3.4 6.3 3.4 9.9 0 5.7-2 9.9-6.1 12.7 -4.1 2.8-9 4.2-14.9 4.2H287.8zM296.3 38.2v18.5h1c4.5 0 7.1-0.4 9.3-1.7 2.2-1.4 3.2-3.9 3.2-7.8 0-3.9-0.9-5.7-3.1-7.1 -2.2-1.4-4.7-2-9.3-1.8H296.3zM296.3 63.6v19h4.8c9.5 0 13-2 13.9-9.1 0.2-2-0.3-3.6-1.2-5 -0.9-1.4-2-2.7-3.6-3.4 -1.6-0.7-3.1-0.9-4.8-1.2 -1.7-0.3-3.3-0.2-5.4-0.2H296.3z" class="a"/><path d="M331.6 90.8v-60.3h32.4v8.1h-24v15.1h23.2v8.1h-23.2v21.1h24v8H331.6z" class="a"/><path d="M393 64.9l18.7 25.9h-10.5l-17.6-25.1h-2v25.1h-8.5v-60.3h9.6c2.3 0 4.1 0 5.6 0.1 1.4 0.1 3.1 0.3 5.1 0.8 2 0.4 3.7 1.1 5.2 1.9 2.5 1.4 4.4 3.5 5.8 6.1 1.4 2.6 2.1 5.4 2.1 8.3 0 4.4-1.1 8.3-3.8 11.4C400.1 62.3 397.3 64.3 393 64.9zM381.6 38.3v20h1.9c2.4 0.1 3.8 0 5.4-0.3 1.7-0.3 2.9-0.8 4.6-1.5 1.7-0.7 2.6-1.8 3.5-3.3 0.9-1.5 1.1-3 1-5.3 -0.3-7.2-4-9.9-15-9.6H381.6z" class="a"/><path d="M433 38.4v52.3h-8.6V38.4h-13.8v-8h36.2v8H433z" class="a"/><path d="M460.3 30.4v60.3h-8.7v-60.3H460.3z" class="a"/><path d="M49.7 104v22h7.6v2.8H46.6v-24.9H49.7z" class="a"/><path d="M65 128.9v-24.9h13.4v2.8H68.1v7h10v2.8h-10v9.4h10.3v2.8H65z" class="a"/><path d="M100.6 116.3h9.9v1c0 3.5-1.1 6.3-3.3 8.6 -2.2 2.3-5 3.4-8.5 3.4 -3.5 0-6.4-1.3-8.9-3.8 -2.5-2.6-3.7-5.6-3.7-9.1 0-3.6 1.3-6.7 3.8-9.2 2.5-2.6 5.6-3.8 9.1-3.8 2 0 3.8 0.4 5.6 1.3 1.8 0.8 3.3 2 4.5 3.5l-2.2 2.1c-0.9-1.2-2.1-2.2-3.5-3 -1.4-0.7-2.9-1.1-4.4-1.1 -2.8 0-5.1 1-7 3 -1.9 2-2.9 4.4-2.9 7.1 0 2.7 1 5 2.9 7.1 1.9 2.1 4.2 3.1 6.8 3.1 2 0 3.8-0.7 5.5-2.2 1.7-1.5 2.6-3.2 2.6-5.2h-6.4V116.3z" class="a"/><path d="M119.8 128.9v-26.1l18.7 19.6v-18.4h3.1v25.9l-18.7-19.6v18.5H119.8z" class="a"/><path d="M154.7 107.3c2.6-2.5 5.6-3.8 9.2-3.8s6.6 1.3 9.2 3.8c2.6 2.5 3.8 5.6 3.8 9.2 0 3.7-1.3 6.8-3.8 9.2 -2.5 2.5-5.6 3.7-9.2 3.7s-6.7-1.2-9.2-3.7c-2.5-2.5-3.8-5.6-3.8-9.2C150.9 112.9 152.2 109.8 154.7 107.3zM156.9 123.6c2 1.9 4.3 2.9 7 2.9s5-1 7-2.9c2-1.9 2.9-4.3 2.9-7.1 0-2.8-0.9-5.2-2.8-7.1s-4.3-2.9-7.1-2.9c-2.9 0-5.2 1-7.1 2.9 -1.9 2-2.8 4.3-2.8 7.1C154 119.3 155 121.6 156.9 123.6z" class="a"/><path d="M201.7 128.9v-24.9h13.4v2.8h-10.3v7h10v2.8h-10v9.4h10.3v2.8H201.7z" class="a"/><path d="M241.4 128.9v-24.9h3c1.3 0 2.4 0.1 3.4 0.3 1 0.2 2 0.5 2.9 1 0.9 0.5 1.6 1.2 2.1 2.1 0.5 0.9 0.7 2.1 0.7 3.4 0 0.9-0.2 1.9-0.7 2.8 -0.5 0.9-1.1 1.6-1.9 1.9v0.1c1.4 0.3 2.6 1 3.6 2.2 0.9 1.2 1.4 2.6 1.4 4.1 0 2.3-0.8 4.1-2.5 5.2 -1.7 1.2-3.7 1.7-6.1 1.7H241.4zM244.5 106.8v8.3h0.8c1.7 0 3-0.3 4-0.9 0.9-0.6 1.4-1.7 1.4-3.3 0-1.6-0.5-2.7-1.4-3.2 -0.9-0.6-2.2-0.8-3.9-0.8H244.5zM244.5 117.5v8.6h2.4c3.9 0 5.9-1.5 5.9-4.4 0-0.8-0.2-1.5-0.6-2.1 -0.4-0.6-0.9-1-1.6-1.3 -0.7-0.3-1.3-0.5-2-0.6 -0.7-0.1-1.4-0.2-2.2-0.2H244.5z" class="a"/><path d="M267.9 104v24.9h-3.1v-24.9H267.9z" class="a"/><path d="M280.3 107.3c2.6-2.5 5.6-3.8 9.2-3.8s6.6 1.3 9.2 3.8c2.6 2.5 3.8 5.6 3.8 9.2 0 3.7-1.3 6.8-3.8 9.2 -2.5 2.5-5.6 3.7-9.2 3.7s-6.7-1.2-9.2-3.7c-2.5-2.5-3.8-5.6-3.8-9.2C276.4 112.9 277.7 109.8 280.3 107.3zM282.5 123.6c2 1.9 4.3 2.9 7 2.9s5-1 7-2.9c2-1.9 2.9-4.3 2.9-7.1 0-2.8-0.9-5.2-2.8-7.1s-4.3-2.9-7.1-2.9c-2.9 0-5.2 1-7.1 2.9 -1.9 2-2.8 4.3-2.8 7.1C279.5 119.3 280.5 121.6 282.5 123.6z" class="a"/><path d="M311.1 128.9v-24.9h13.4v2.8H314.2v7h10v2.8h-10v9.4h10.3v2.8H311.1z" class="a"/><path d="M333.7 128.9v-24.9h5.1c4 0 7.4 1.1 10 3.2 2.6 2.1 4 5.2 4 9.1 0 4.1-1.3 7.2-3.9 9.3 -2.6 2.2-6 3.2-10.1 3.2H333.7zM336.8 106.8v19.2h1.1c1.7 0 3.2-0.2 4.6-0.5 1.4-0.3 2.6-0.9 3.7-1.6s2-1.7 2.6-3c0.6-1.3 0.9-2.8 0.9-4.5 0-1.8-0.3-3.3-0.9-4.6 -0.6-1.3-1.5-2.3-2.6-3 -1.1-0.7-2.4-1.2-3.7-1.6 -1.4-0.3-2.9-0.5-4.5-0.5H336.8z" class="a"/><path d="M363.5 104v24.9h-3.1v-24.9H363.5z" class="a"/><path d="M376.8 104v22h7.6v2.8h-10.7v-24.9H376.8z" class="a"/><path d="M393.1 104v24.9h-3.1v-24.9H393.1z" class="a"/><path d="M406.3 126h12.6v2.8h-17.7l12.6-22h-10.8v-2.8h15.9L406.3 126z" class="a"/><path d="M430.2 104v24.9h-3.1v-24.9H430.2z" class="a"/><path d="M454 122.6h-10.3l-2.6 6.2h-3l10.7-25.9 10.7 25.9h-3L454 122.6zM452.8 119.8l-4-10.1 -4 10.1H452.8z" class="a"/></svg>